# xmcd CD database file
#
# Track frame offsets:
#	150
#	452
#	12535
#	33605
#	50177
#	98255
#
# Disc length: 1709 seconds
#
# Revision: 0
# Processed by: cddbd v1.5.1PL0 Copyright (c) Steve Scherf et al.
# Submitted via: CDex 1.51
#
DISCID=4006ab06
DTITLE=Capsule Giants - Hey Cow-Plnet
DYEAR=1996
DGENRE=Rock
TTITLE0=On
TTITLE1=Introduction(Space Age Travelers Sound)
TTITLE2=Don't Forget Me
TTITLE3=Ever blurs
TTITLE4=Hey Cow-Planet(Cow Wars Mix)
TTITLE5=Apple Girl-506
EXTD=YEAR: 1996
EXTT0=
EXTT1=
EXTT2=
EXTT3=
EXTT4=
EXTT5=
PLAYORDER=
